<svg xmlns="http://www.w3.org/2000/svg" width="589" height="141" viewBox="0 0 589 141" fill="none"><g clip-path="url(#clip0_2316_894)"><path d="M293.211 102.651C293.211 102.651 285.462 97.0912 282.064 79.1421C282.064 79.1421 243.355 68.0752 244.786 21.6555C244.786 21.6555 255.046 32.1844 276.997 31.2279L301.333 59.28C301.333 59.28 292.973 87.6982 293.218 102.658L293.211 102.651Z" fill="url(#paint0_linear_2316_894)"></path><path d="M312.055 39.8363C312.055 39.8363 326.309 28.3509 341.524 39.8363C341.524 39.8363 302.517 50.963 293.211 102.643C293.211 102.643 285.156 83.7974 293.211 62.6276C293.211 62.6276 290.797 66.0351 289.098 72.6783C289.098 72.6783 250.985 52.7564 272.102 0C272.102 0 281.289 29.9127 316.481 43.6697C316.481 43.6697 313.56 41.697 312.07 39.8438L312.055 39.8363Z" fill="url(#paint1_linear_2316_894)"></path><path d="M349.877 31.5118C349.877 31.5118 349.303 31.3773 348.357 31.2503C350.764 39.7541 346.904 47.9739 346.718 48.355L346.442 48.9304L345.809 48.8856C345.459 48.8632 345.108 48.8482 344.758 48.8482C343.03 48.8482 341.375 49.1247 340.019 49.446C339.639 50.268 339.185 51.0975 338.626 51.9194C338.626 51.9194 343.372 50.1634 348.253 50.7911C348.253 50.7911 353.744 40.9198 349.885 31.5044L349.877 31.5118Z" fill="#7EBE42"></path><path d="M334.885 30.1818C334.885 30.1818 342.307 39.6346 336.323 49.6478C336.323 49.6478 340.958 47.6153 345.868 47.9515C345.868 47.9515 350.779 37.7739 346.368 28.5976C346.368 28.5976 340.377 27.514 334.893 30.1818H334.885Z" fill="#7EBE42"></path><path d="M343.111 33.6117H343.842V34.2244C344.207 34.2917 344.52 34.4113 344.773 34.5831C345.034 34.755 345.28 35.0091 345.518 35.3453L344.922 35.831C344.632 35.3827 344.274 35.1137 343.842 35.024V37.8262C344.818 38.3418 345.421 38.7603 345.66 39.0816C345.965 39.4926 346.114 39.9484 346.114 40.4491C346.114 40.8601 346.003 41.2412 345.779 41.5775C345.555 41.9212 345.25 42.1902 344.87 42.377C344.624 42.5041 344.281 42.5937 343.842 42.646V44.4021H343.111V42.646C342.65 42.6087 342.284 42.5339 342.009 42.4293C341.733 42.3172 341.465 42.1528 341.197 41.9361C340.936 41.7194 340.712 41.4654 340.541 41.1739L341.137 40.7181C341.658 41.4056 342.314 41.7867 343.111 41.8689V38.3941C342.523 38.1027 342.15 37.9084 341.994 37.8038C341.673 37.5871 341.442 37.348 341.286 37.079C341.129 36.81 341.055 36.5036 341.055 36.1598C341.055 35.8161 341.137 35.5097 341.308 35.2258C341.48 34.9343 341.703 34.7027 341.994 34.5233C342.284 34.344 342.657 34.2319 343.104 34.1871V33.6117H343.111ZM343.111 34.9717C342.828 34.9941 342.605 35.0539 342.433 35.1585C342.262 35.2631 342.128 35.3976 342.024 35.577C341.927 35.7489 341.875 35.9431 341.875 36.1524C341.875 36.4214 341.957 36.653 342.113 36.8398C342.322 37.0939 342.657 37.3256 343.111 37.5273V34.9717ZM343.849 41.8465C344.296 41.7792 344.661 41.6148 344.93 41.3533C345.198 41.0917 345.332 40.7928 345.332 40.464C345.332 40.1353 345.228 39.8438 345.019 39.5748C344.81 39.2983 344.423 39.0069 343.849 38.7005V41.8539V41.8465Z" fill="white"></path><path d="M41.9352 117.02H45.0498L56.9121 140.409H53.0449L50.206 134.663H36.25L33.3738 140.409H29.6259L41.9278 117.02H41.9352ZM43.4329 120.585H43.3509L37.5539 132.077H48.9468L43.4255 120.585H43.4329Z" fill="#231F20"></path><path d="M115.851 117.02H126.573C127.49 117.02 128.466 117.11 129.486 117.282C130.515 117.461 131.528 117.737 132.541 118.126C133.555 118.515 134.523 119.015 135.462 119.628C136.394 120.248 137.213 120.988 137.929 121.855C138.636 122.722 139.203 123.73 139.627 124.859C140.045 125.995 140.261 127.272 140.261 128.707C140.261 130.142 140.052 131.42 139.627 132.556C139.21 133.691 138.644 134.693 137.929 135.56C137.221 136.426 136.401 137.174 135.462 137.786C134.531 138.407 133.555 138.907 132.541 139.288C131.528 139.677 130.515 139.953 129.486 140.133C128.458 140.312 127.49 140.394 126.573 140.394H115.851V117.005V117.02ZM119.159 137.831H125.463C127.065 137.831 128.548 137.652 129.919 137.301C131.282 136.949 132.467 136.404 133.465 135.664C134.464 134.924 135.254 133.983 135.827 132.84C136.409 131.696 136.692 130.321 136.692 128.707C136.692 127.093 136.401 125.726 135.827 124.575C135.246 123.432 134.464 122.49 133.465 121.75C132.467 121.01 131.282 120.465 129.919 120.114C128.555 119.763 127.065 119.583 125.463 119.583H119.159V137.816V137.831Z" fill="#231F20"></path><path d="M197.493 117.02H201.241L209.832 136.247H209.914L218.781 117.02H222.291L211.375 140.409H208.178L197.493 117.02Z" fill="#231F20"></path><path d="M290.208 117.02H293.323L305.185 140.409H301.318L298.479 134.663H284.523L281.647 140.409H277.899L290.201 117.02H290.208ZM291.706 120.585H291.624L285.827 132.077H297.22L291.698 120.585H291.706Z" fill="#231F20"></path><path d="M364.63 117.02H368.81L384.972 136.441H385.054V117.02H388.362V140.409H384.182L368.021 120.988H367.939V140.409H364.63V117.02Z" fill="#231F20"></path><path d="M470.593 121.84C469.751 120.891 468.716 120.181 467.479 119.71C466.242 119.239 464.953 119 463.619 119C462.069 119 460.646 119.262 459.342 119.792C458.038 120.323 456.921 121.033 455.974 121.922C455.028 122.811 454.29 123.85 453.769 125.031C453.24 126.211 452.979 127.437 452.979 128.715C452.979 130.082 453.24 131.353 453.769 132.533C454.298 133.714 455.021 134.738 455.959 135.604C456.891 136.471 458.008 137.166 459.312 137.667C460.616 138.175 462.054 138.429 463.627 138.429C465.333 138.429 466.86 138.145 468.202 137.585C469.543 137.024 470.713 136.217 471.711 135.156L474.192 136.905C472.933 138.317 471.413 139.348 469.64 140.013C467.866 140.671 465.862 141.007 463.627 141.007C461.63 141.007 459.759 140.701 458.031 140.081C456.295 139.468 454.79 138.608 453.515 137.517C452.241 136.426 451.243 135.134 450.52 133.639C449.797 132.145 449.432 130.501 449.432 128.715C449.432 126.929 449.782 125.389 450.475 123.895C451.168 122.4 452.152 121.1 453.411 119.994C454.67 118.896 456.168 118.021 457.904 117.386C459.64 116.751 461.54 116.43 463.619 116.43C465.512 116.43 467.33 116.714 469.081 117.289C470.832 117.865 472.292 118.799 473.477 120.099L470.601 121.847L470.593 121.84Z" fill="#231F20"></path><path d="M534.532 117.02H552.072V119.598H537.84V126.929H551.126V129.507H537.84V137.831H552.78V140.409H534.525V117.02H534.532Z" fill="#231F20"></path><path d="M11.6015 85.1049V107.597H0V53.3091H58.7003V64.1667H11.6015V74.2472H54.0582V85.1049H11.6015Z" fill="black"></path><path d="M124.047 107.597H110.665L104.398 96.7397H68.208L62.0235 107.597H48.6412L79.653 53.3091H93.0353L124.047 107.597ZM75.3238 84.3277L74.3924 85.882H98.2138L97.3644 84.3277L86.3069 63.4643L75.3238 84.3277Z" fill="black"></path><path d="M122.505 103.637L125.679 93.2426C136.118 96.3437 145.402 97.9727 156.847 97.9727C160.401 97.9727 175.095 97.8158 175.095 91.3819C175.095 87.5037 169.835 87.1973 156.996 86.4949C141.453 85.643 124.517 84.7089 124.517 69.8235C124.517 54.9382 141.379 52.1434 154.984 52.1434C163.494 52.1434 173.083 53.227 182.673 55.3268L180.274 65.9528C172.077 64.1668 163.65 63.0086 153.055 63.0086C150.268 63.0086 136.349 63.0833 136.349 69.2108C136.349 74.4864 146.714 74.9497 157.54 75.3383C172.696 75.9585 186.928 77.5875 186.928 90.8514C186.928 106.051 168.21 108.771 154.753 108.771C144.776 108.771 133.406 107.299 122.505 103.652V103.637Z" fill="black"></path><path d="M223.274 64.1594V107.59H211.673V64.1594H186.153V53.3018H248.795V64.1594H223.274Z" fill="black"></path><path d="M325.355 107.597V53.3091H336.957V96.7397H381.731V107.597H325.355Z" fill="black"></path><path d="M418.085 52.1434C441.981 52.1434 454.432 64.3163 454.432 80.4495C454.432 96.5828 441.981 108.756 418.085 108.756C394.189 108.756 381.738 96.5828 381.738 80.4495C381.738 64.3163 394.189 52.1434 418.085 52.1434ZM418.085 97.898C434.865 97.898 442.6 90.687 442.6 80.4495C442.6 70.2121 434.865 63.0011 418.085 63.0011C401.305 63.0011 393.571 70.2121 393.571 80.4495C393.571 90.687 401.305 97.898 418.085 97.898Z" fill="black"></path><path d="M524.421 107.597H511.038L504.772 96.7397H468.582L462.397 107.597H449.015L480.027 53.3091H493.409L524.421 107.597ZM475.697 84.3277L474.766 85.882H498.587L497.738 84.3277L486.68 63.4643L475.697 84.3277Z" fill="black"></path><path d="M577.399 53.3018H589V107.59H577.399L535.791 67.9555L536.022 76.5639V107.59H524.421V53.3018H536.022L577.63 93.011L577.399 84.3279V53.3018Z" fill="black"></path></g><defs><linearGradient id="paint0_linear_2316_894" x1="244.741" y1="62.1494" x2="301.325" y2="62.1494" gradientUnits="userSpaceOnUse"><stop offset="0.1782" stop-color="#90D541"></stop><stop offset="0.350962" stop-color="#81C241"></stop><stop offset="0.870192" stop-color="#539041"></stop></linearGradient><linearGradient id="paint1_linear_2316_894" x1="261.447" y1="7.17367" x2="327.477" y2="82.3992" gradientUnits="userSpaceOnUse"><stop stop-color="#8AE73D"></stop><stop offset="0.326923" stop-color="#93C843"></stop><stop offset="0.89" stop-color="#7EBE42"></stop></linearGradient><clipPath id="clip0_2316_894"><rect width="589" height="141" fill="white"></rect></clipPath></defs></svg>